<?xml version="1.0" standalone="no"?>
<!DOCTYPE svg PUBLIC "-//W3C//DTD SVG 20010904//EN"
 "http://www.w3.org/TR/2001/REC-SVG-20010904/DTD/svg10.dtd">
<svg version="1.0" xmlns="http://www.w3.org/2000/svg"
 width="1280.000000pt" height="640.000000pt" viewBox="0 0 1280.000000 640.000000"
 preserveAspectRatio="xMidYMid meet">
<metadata>
Created by potrace 1.15, written by Peter Selinger 2001-2017
</metadata>
<g transform="translate(0.000000,640.000000) scale(0.100000,-0.100000)"
fill="#000000" stroke="none">
<path d="M770 6142 c-19 -9 -45 -32 -57 -51 -20 -30 -29 -34 -73 -38 -104 -8
-159 -51 -219 -172 -22 -42 -100 -190 -175 -330 -134 -250 -136 -255 -136
-318 0 -40 -6 -72 -15 -87 -35 -53 -36 -307 -2 -375 11 -22 17 -58 17 -101 l0
-66 -38 -17 c-57 -25 -72 -59 -72 -167 0 -169 16 -180 275 -180 191 0 222 5
254 44 11 13 42 16 186 16 l173 0 16 -71 c64 -284 348 -464 621 -394 100 26
165 63 241 139 79 80 116 145 141 254 l17 72 1161 0 1160 0 13 -76 c17 -109
62 -195 142 -276 303 -304 800 -138 872 289 12 70 6 66 130 77 52 4 58 2 73
-21 26 -39 73 -53 181 -53 68 0 106 5 130 16 58 28 64 44 64 180 l0 122 -35
31 c-20 17 -42 31 -50 31 -19 0 -19 -4 10 54 42 84 32 227 -20 276 -22 21 -28
22 -49 11 -20 -11 -40 -8 -147 22 -766 219 -1059 292 -1285 322 -184 24 -212
43 -404 274 -77 93 -169 196 -206 229 -73 67 -195 135 -315 175 -94 31 -287
63 -430 72 -102 7 -108 8 -135 37 -16 17 -47 39 -69 49 -38 18 -86 19 -975 19
-870 0 -937 -1 -970 -18z m330 -47 l0 -35 -155 0 c-85 0 -155 4 -155 9 0 5 7
14 15 21 32 27 93 39 193 40 l102 0 0 -35z m1170 0 l0 -35 -555 0 -555 0 0 35
0 35 555 0 555 0 0 -35z m354 24 c23 -6 56 -21 72 -34 l29 -24 -197 -1 -198 0
0 35 0 35 126 0 c69 0 144 -5 168 -11z"/>
<path d="M10085 6141 c-22 -10 -53 -32 -69 -49 -27 -29 -33 -30 -135 -37 -143
-9 -336 -41 -430 -72 -120 -40 -242 -108 -315 -175 -37 -33 -129 -136 -206
-229 -192 -231 -220 -250 -404 -274 -226 -30 -519 -103 -1285 -322 -107 -30
-127 -33 -147 -22 -21 11 -27 10 -49 -11 -52 -49 -62 -192 -20 -276 29 -58 29
-54 10 -54 -8 0 -30 -14 -50 -31 l-35 -31 0 -122 c0 -136 6 -152 64 -180 24
-11 62 -16 130 -16 108 0 155 14 181 53 15 23 21 25 73 21 124 -11 118 -7 130
-77 39 -236 210 -406 441 -439 269 -39 530 155 573 426 l13 76 1160 0 1161 0
17 -72 c25 -109 62 -174 141 -254 76 -76 141 -113 241 -139 273 -70 557 110
621 394 l16 71 173 0 c144 0 175 -3 186 -16 32 -39 63 -44 254 -44 259 0 275
11 275 180 0 108 -15 142 -72 167 l-38 17 0 66 c0 43 6 79 17 101 34 68 33
322 -2 375 -9 15 -15 47 -15 87 0 63 -2 68 -136 318 -75 140 -153 288 -175
330 -60 121 -115 164 -219 172 -44 4 -53 8 -73 38 -49 73 16 69 -1027 69 -889
0 -937 -1 -975 -19z m385 -46 l0 -35 -197 0 -198 1 30 24 c42 35 84 43 233 44
l132 1 0 -35z m1170 0 l0 -35 -555 0 -555 0 0 35 0 35 555 0 555 0 0 -35z
m329 10 c68 -40 54 -45 -113 -45 l-156 0 0 36 0 36 118 -3 c95 -3 123 -8 151
-24z"/>
<path d="M786 2600 c-35 -11 -63 -36 -82 -72 -13 -25 -20 -28 -62 -28 -56 0
-117 -27 -153 -66 -15 -16 -106 -178 -203 -359 -172 -324 -176 -332 -176 -391
0 -35 -7 -74 -16 -92 -35 -71 -35 -312 0 -380 10 -20 16 -57 16 -102 0 -63 -2
-70 -20 -70 -11 0 -34 -13 -52 -29 -32 -29 -33 -31 -36 -126 -4 -106 6 -144
46 -175 23 -18 41 -20 228 -20 l203 0 34 30 35 30 170 0 170 0 15 -68 c25
-110 63 -179 141 -258 105 -104 220 -154 360 -154 246 0 460 176 507 418 l12
62 1160 -2 1161 -3 14 -75 c18 -98 60 -186 124 -255 65 -71 120 -109 204 -141
300 -112 632 83 685 403 l12 72 66 6 c36 3 76 8 88 11 15 3 26 -2 33 -16 25
-46 67 -60 183 -60 179 0 197 18 197 196 l0 122 -35 31 c-20 17 -42 31 -50 31
-19 0 -19 -4 10 54 44 86 29 238 -28 285 -10 7 -17 18 -17 24 0 22 -56 81
-111 117 -177 114 -569 182 -1154 200 -374 11 -378 12 -581 261 -64 79 -140
168 -168 197 -169 177 -425 275 -756 289 l-135 6 -46 43 c-26 23 -64 47 -85
53 -48 13 -1864 14 -1908 1z m314 -65 l0 -35 -155 0 c-85 0 -155 3 -155 8 0
12 14 27 40 45 20 14 48 17 147 17 l123 0 0 -35z m1170 0 l0 -35 -555 0 -555
0 0 35 0 35 555 0 555 0 0 -35z m408 8 c23 -15 42 -31 42 -35 0 -5 -88 -8
-195 -8 l-195 0 0 35 0 35 153 0 c150 0 154 -1 195 -27z"/>
<path d="M10096 2595 c-21 -7 -57 -31 -80 -53 l-41 -40 -135 -5 c-330 -14
-587 -112 -756 -289 -28 -29 -104 -118 -168 -197 -203 -249 -207 -250 -581
-261 -585 -18 -977 -86 -1154 -200 -55 -36 -111 -95 -111 -117 0 -6 -7 -17
-17 -24 -57 -47 -72 -199 -28 -285 29 -58 29 -54 10 -54 -8 0 -30 -14 -50 -31
l-35 -31 0 -122 c0 -178 18 -196 197 -196 116 0 158 14 183 60 7 14 18 19 33
16 12 -3 52 -8 88 -11 l66 -6 12 -72 c43 -263 281 -453 542 -433 237 17 428
190 471 426 l14 75 1161 3 1160 2 12 -62 c47 -242 261 -418 507 -418 140 0
255 50 360 154 78 79 116 148 141 258 l15 68 170 0 170 0 35 -30 34 -30 203 0
c187 0 205 2 228 20 40 31 50 69 46 175 -3 95 -4 97 -36 126 -18 16 -41 29
-52 29 -18 0 -20 7 -20 70 0 45 6 82 16 102 35 68 35 309 0 380 -9 18 -16 57
-16 92 0 59 -4 67 -176 391 -97 181 -188 343 -203 359 -36 39 -97 66 -153 66
-42 0 -48 3 -66 34 -11 19 -33 43 -48 53 -27 17 -77 18 -969 20 -784 2 -946 0
-979 -12z m374 -60 l0 -35 -195 0 c-107 0 -195 3 -195 8 0 4 19 20 42 35 41
26 45 27 195 27 l153 0 0 -35z m1170 0 l0 -35 -555 0 -555 0 0 35 0 35 555 0
555 0 0 -35z m330 18 c26 -18 40 -33 40 -45 0 -5 -70 -8 -155 -8 l-155 0 0 35
0 35 123 0 c99 0 127 -3 147 -17z"/>
</g>
</svg>
