<?xml version="1.0" standalone="no"?>
<!DOCTYPE svg PUBLIC "-//W3C//DTD SVG 20010904//EN"
 "http://www.w3.org/TR/2001/REC-SVG-20010904/DTD/svg10.dtd">
<svg version="1.0" xmlns="http://www.w3.org/2000/svg"
 width="1280.000000pt" height="640.000000pt" viewBox="0 0 1280.000000 640.000000"
 preserveAspectRatio="xMidYMid meet">
<metadata>
Created by potrace 1.15, written by Peter Selinger 2001-2017
</metadata>
<g transform="translate(0.000000,640.000000) scale(0.100000,-0.100000)"
fill="#000000" stroke="none">
<path d="M6562 5719 c-234 -34 -353 -164 -409 -447 -13 -62 -17 -182 -20 -609
l-5 -533 -2929 0 -2929 0 0 -820 0 -820 -68 0 c-94 0 -129 -20 -167 -96 -29
-56 -30 -66 -33 -209 -4 -171 7 -253 43 -307 33 -49 75 -70 157 -76 l68 -5 0
-63 0 -64 740 0 739 0 5 -33 c3 -17 10 -62 16 -100 14 -85 61 -223 107 -307
238 -439 744 -651 1223 -514 406 117 710 475 756 892 l7 62 991 -1 991 0 59
-76 59 -76 1733 7 1733 7 11 -43 c74 -294 268 -542 534 -684 283 -151 617
-164 913 -36 227 98 415 277 531 507 27 54 71 186 86 256 5 24 12 27 61 34
147 18 304 85 421 179 l69 56 290 0 c359 1 376 5 427 109 21 43 23 59 23 236
l0 190 -30 59 c-42 84 -69 96 -212 96 l-112 0 -3 533 -3 532 -23 47 c-71 143
-247 255 -540 344 -338 102 -831 174 -1406 204 l-200 10 -515 523 c-284 287
-545 553 -581 591 -124 132 -298 282 -367 319 -137 71 -301 107 -573 127 -177
12 -1579 11 -1668 -1z"/>
</g>
</svg>
