<?xml version="1.0" standalone="no"?>
<!DOCTYPE svg PUBLIC "-//W3C//DTD SVG 20010904//EN"
 "http://www.w3.org/TR/2001/REC-SVG-20010904/DTD/svg10.dtd">
<svg version="1.0" xmlns="http://www.w3.org/2000/svg"
 width="1280.000000pt" height="640.000000pt" viewBox="0 0 1280.000000 640.000000"
 preserveAspectRatio="xMidYMid meet">
<metadata>
Created by potrace 1.15, written by Peter Selinger 2001-2017
</metadata>
<g transform="translate(0.000000,640.000000) scale(0.100000,-0.100000)"
fill="#000000" stroke="none">
<path d="M9960 5770 c-547 -98 -1101 -197 -1230 -220 -129 -23 -332 -59 -450
-80 -118 -21 -332 -59 -475 -85 -319 -56 -629 -111 -925 -164 -124 -22 -911
-162 -1750 -311 -839 -149 -1625 -288 -1747 -310 -123 -22 -323 -58 -445 -80
-123 -21 -324 -57 -448 -79 -124 -22 -342 -61 -485 -86 -143 -26 -354 -63
-470 -84 l-210 -38 -3 -281 -2 -282 -158 0 c-365 0 -476 -62 -542 -302 -27
-100 -46 -203 -60 -333 -24 -223 -17 -203 -84 -230 -109 -44 -145 -73 -197
-160 -27 -44 -49 -92 -49 -106 0 -20 -8 -30 -29 -39 -42 -17 -125 -99 -149
-147 -26 -50 -56 -251 -48 -312 8 -55 28 -88 58 -93 17 -2 24 -13 33 -53 17
-76 53 -142 93 -173 31 -23 46 -27 115 -29 100 -4 153 17 196 77 16 23 32 47
34 53 4 11 130 -7 579 -85 l117 -21 7 -41 c9 -60 39 -132 69 -172 42 -55 77
-68 178 -66 93 2 125 12 169 57 l27 27 20 -40 c23 -45 81 -99 116 -108 13 -3
65 -4 114 -3 82 4 92 6 128 35 50 40 99 115 114 176 10 38 17 48 33 48 28 0
603 38 687 45 l66 6 12 -43 c20 -64 45 -109 84 -147 43 -40 92 -51 195 -44 85
7 118 25 169 91 98 128 102 397 8 535 l-27 38 59 -5 c32 -4 171 -13 308 -21
226 -14 992 -61 2360 -145 270 -17 629 -39 798 -50 170 -11 320 -20 333 -20
22 0 24 -4 24 -55 0 -30 -2 -55 -4 -55 -32 0 -165 -34 -198 -51 -110 -55 -203
-173 -253 -319 -37 -111 -47 -306 -21 -423 38 -170 151 -332 272 -391 73 -36
180 -46 384 -37 147 7 160 9 225 39 38 18 88 49 112 68 24 20 45 35 46 33 72
-111 149 -176 244 -208 54 -18 85 -21 245 -20 101 0 203 5 228 11 144 34 276
144 348 289 23 47 42 93 42 102 0 19 7 23 63 31 l37 5 0 -60 0 -59 38 0 c20 0
127 7 237 15 110 8 206 15 213 15 10 0 13 17 10 70 -2 39 0 70 5 70 4 0 7 -9
7 -19 0 -10 21 -60 46 -111 57 -114 129 -189 223 -234 66 -31 66 -31 256 -33
262 -4 333 13 456 111 47 37 146 163 160 205 2 5 46 13 97 17 l93 7 -7 381 -7
382 54 -6 54 -5 3 -49 3 -49 87 6 c48 3 450 32 894 64 l807 57 3 96 c2 52 5
469 6 925 1 457 5 1267 9 1801 l6 972 -54 15 c-30 9 -188 52 -351 96 -358 97
-790 214 -1143 310 -143 39 -269 70 -280 70 -11 -1 -468 -82 -1015 -179z"/>
</g>
</svg>
